<?xml version="1.0" encoding="UTF-8"?>
<svg xmlns="http://www.w3.org/2000/svg" xmlns:xlink="http://www.w3.org/1999/xlink" width="15px" height="16px" viewBox="0 0 15 16" version="1.1">
<g id="surface1">
<path style=" stroke:none;fill-rule:nonzero;fill:rgb(0, 0, 0);fill-opacity:1;" d="M 10.382812 7.429688 C 10.382812 5.222656 8.574219 3.429688 6.347656 3.429688 C 4.121094 3.429688 2.308594 5.222656 2.308594 7.429688 C 2.308594 9.632812 4.121094 11.429688 6.347656 11.429688 C 8.574219 11.429688 10.382812 9.632812 10.382812 7.429688 Z M 15 14.855469 C 15 15.480469 14.476562 16 13.847656 16 C 13.539062 16 13.242188 15.875 13.035156 15.660156 L 9.941406 12.605469 C 8.886719 13.332031 7.625 13.714844 6.347656 13.714844 C 2.839844 13.714844 0 10.902344 0 7.429688 C 0 3.957031 2.839844 1.144531 6.347656 1.144531 C 9.851562 1.144531 12.691406 3.957031 12.691406 7.429688 C 12.691406 8.695312 12.304688 9.945312 11.574219 10.992188 L 14.667969 14.054688 C 14.875 14.257812 15 14.554688 15 14.855469 Z M 15 14.855469 "/>
</g>
</svg>
